<?xml version="1.0" encoding="utf-8"?>
<!-- Generator: Adobe Illustrator 18.1.0, SVG Export Plug-In . SVG Version: 6.00 Build 0)  -->
<svg version="1.1" id="Слой_1" xmlns="http://www.w3.org/2000/svg" xmlns:xlink="http://www.w3.org/1999/xlink" x="0px" y="0px"
	 viewBox="11.9 60.8 571.5 571.5" enable-background="new 11.9 60.8 571.5 571.5" xml:space="preserve">
<path display="none" fill="none" d="M297.6,620.6c151.1,0,274.1-122.9,274.1-274.1S448.8,72.5,297.6,72.5S23.6,195.4,23.6,346.5
	S146.5,620.6,297.6,620.6z M188.6,289.9c2.3-2.3,6-2.3,8.2,0l100.8,100.8l100.8-100.8c2.3-2.3,6-2.3,8.2,0c2.3,2.3,2.3,6,0,8.2
	l-105,105c-1.1,1.1-2.6,1.7-4.1,1.7s-3-0.6-4.1-1.7l-105-105C186.3,295.9,186.3,292.2,188.6,289.9z"/>
<path d="M346,455.6c2.3,2.3,6,2.3,8.2,0c2.3-2.3,2.3-6,0-8.2L253.4,346.5l100.8-100.8c2.3-2.3,2.3-6,0-8.2c-2.3-2.3-6-2.3-8.2,0
	l-105,105c-1.1,1.1-1.7,2.6-1.7,4.1c0,1.5,0.6,3,1.7,4.1L346,455.6z"/>
<path d="M297.6,632.3c157.6,0,285.7-128.2,285.7-285.7S455.2,60.8,297.6,60.8S11.9,189,11.9,346.5S140.1,632.3,297.6,632.3z
	 M297.6,72.5c151.1,0,274.1,122.9,274.1,274.1S448.8,620.6,297.6,620.6S23.6,497.7,23.6,346.5S146.5,72.5,297.6,72.5z"/>
</svg>
