<svg viewBox="0 0 503 503" xmlns="http://www.w3.org/2000/svg"><path fill="#771d1a" d="m200.7,248.6l107.8,104.5c3.9,3.8 4,10.1 0.2,14l0,0c-3.8,3.9 -10.1,4 -14,0.2l-107.7,-104.6c-3.9,-3.8 -4,-10.1 -0.2,-14l0,0c3.7,-3.8 10,-3.9 13.9,-0.1z"/><path fill="#771d1a" d="m200.7,262.5l107.8,-104.5c3.9,-3.8 4,-10.1 0.2,-14l0,0c-3.8,-3.9 -10.1,-4 -14,-0.2l-107.7,104.5c-3.9,3.8 -4,10.1 -0.2,14l0,0c3.7,3.9 10,4 13.9,0.2z"/><ellipse id="svg_3" ry="238.6" rx="238.1" cy="251.9" cx="251.6" stroke-miterlimit="10" stroke-width="20" stroke="#771d1a" fill="none"/></svg>