<svg viewBox="0 0 575 575" xmlns="http://www.w3.org/2000/svg"><path d="m283.5,345.1c1.1,1.1 2.6,1.7 4.1,1.7s3,-0.6 4.1,-1.7l105,-105c2.3,-2.3 2.3,-6 0,-8.2s-6,-2.3 -8.2,0l-100.9,100.9l-100.8,-100.9c-2.3,-2.3 -6,-2.3 -8.2,0c-2.3,2.3 -2.3,6 0,8.2l104.9,105z"/><path d="m287.6,574.3c157.6,0 285.7,-128.2 285.7,-285.7s-128.1,-285.8 -285.7,-285.8s-285.7,128.2 -285.7,285.7s128.2,285.8 285.7,285.8zm0,-559.8c151.1,0 274.1,122.9 274.1,274.1s-122.9,274 -274.1,274s-274,-122.9 -274,-274.1s122.9,-274 274,-274z"/>
</svg>