<svg width="111" height="87.1" xmlns="http://www.w3.org/2000/svg"><path  fill="#ffffff" d="m0,2.5l1.7,-2.5l109.3,77.1l-1.7,2.5l-109.3,-77.1z" class="st0"/><path fill="#ffffff" id="svg_2" d="m11.5,58.1l88,0l0,3l-88,0l0,-3z" class="st0"/><path fill="#ffffff" id="svg_4" d="m60.7,74.1l5.6,10l-21.7,0l5.6,-10l10.5,0m1.8,-3l-14,0l-7.3,13c-0.8,1.4 0.2,3 1.7,3l25.2,0c1.5,0 2.5,-1.6 1.7,-3l-7.3,-13l0,0z"/><path id="svg_5" d="m56.5,66.3l-2,0" fill="none" stroke="#ffffff" stroke-width="2" stroke-miterlimit="10"/><path fill="#ffffff" d="m93.5,6.1l-76,0c-4.4,0 -8,3.6 -8,8l0,52c0,4.4 3.6,8 8,8l76,0c4.4,0 8,-3.6 8,-8l0,-52c0,-4.4 -3.6,-8 -8,-8zm5,59c0,3.3 -2.7,6 -6,6l-74,0c-3.3,0 -6,-2.7 -6,-6l0,-50c0,-3.3 2.7,-6 6,-6l74,0c3.3,0 6,2.7 6,6l0,50z"/></svg>